<?xml version="1.0" encoding="UTF-8" standalone="no" ?>
<!DOCTYPE svg PUBLIC "-//W3C//DTD SVG 1.1//EN" "http://www.w3.org/Graphics/SVG/1.1/DTD/svg11.dtd">
<svg xmlns="http://www.w3.org/2000/svg" xmlns:xlink="http://www.w3.org/1999/xlink" version="1.1" width="1280" height="1024" viewBox="0 0 1280 1024" xml:space="preserve">
<desc>Created with Fabric.js 5.3.0</desc>
<defs>
</defs>
<g transform="matrix(1 0 0 1 640 512)" id="background-logo"  >
<rect style="stroke: none; stroke-width: 0; stroke-dasharray: none; stroke-linecap: butt; stroke-dashoffset: 0; stroke-linejoin: miter; stroke-miterlimit: 4; fill: rgb(255,255,255); fill-opacity: 0; fill-rule: nonzero; opacity: 1;"  paint-order="stroke"  x="-640" y="-512" rx="0" ry="0" width="1280" height="1024" />
</g>
<g transform="matrix(1.9211538461538462 0 0 1.9211538461538462 639.9766138132192 503.9944328324604)" id="text-logo"  >
<g style=""  paint-order="stroke"   >
		<g transform="matrix(1 0 0 1 0 0)" id="text-logo-path-0"  >
<linearGradient id="SVGID_196443" gradientUnits="userSpaceOnUse" gradientTransform="matrix(1 0 0 1 3.8581745406003165 -59.839112950289206)"  x1="-3.8500000000000227" y1="-7.8557827049850175" x2="-3.8500000000000227" y2="79.14421729501498">
<stop offset="0%" style="stop-color:rgb(66,230,149);stop-opacity: 1"/>
<stop offset="100%" style="stop-color:rgb(59,178,184);stop-opacity: 1"/>
</linearGradient>
<filter id="SVGID_196441" y="-24.827393598759663%" height="149.65478719751934%" x="-23.11459724502296%" width="146.22919449004593%" >
	<feGaussianBlur in="SourceAlpha" stdDeviation="0"></feGaussianBlur>
	<feOffset dx="8.105263157894736" dy="3.039473684210526" result="oBlur" ></feOffset>
	<feFlood flood-color="rgb(169,191,183)" flood-opacity="1"/>
	<feComposite in2="oBlur" operator="in" />
	<feMerge>
		<feMergeNode></feMergeNode>
		<feMergeNode in="SourceGraphic"></feMergeNode>
	</feMerge>
</filter>
<path style="stroke: rgb(255,255,255); stroke-width: 7.092105263157894; stroke-dasharray: none; stroke-linecap: butt; stroke-dashoffset: 0; stroke-linejoin: miter; stroke-miterlimit: 4; fill: url(#SVGID_196443); fill-rule: nonzero; opacity: 1;filter: url(#SVGID_196441);"  paint-order="stroke"  transform=" translate(-133.9755303375131, 28.35759376163758)" d="M 4.85 -28.88 C 7.01 -21.79 18.09 -25.1 15.94 -32.26 C 13.55 -40.04 20.1 -51.67 25.56 -51.67 C 31.03 -51.67 26.33 -42.5 14.86 -4.24 C 12.94 2.16 23.1 5.78 25.18 -1.16 C 34.11 -30.88 45.74 -59.37 25.56 -59.37 C 14.4 -59.37 -0.08 -45.05 4.85 -28.88 Z M 65.68 -53.05 C 67.14 -58.98 58.13 -61.06 56.75 -55.36 C 51.9 -35.57 46.66 -20.41 41.5 -4.24 C 39.5 2.23 49.59 6.08 51.82 -0.85 C 56.98 -17.17 60.83 -33.26 65.68 -53.05 Z M 20.94 -28.95 C 17.02 -29.11 16.71 -22.95 20.79 -22.79 C 36.34 -22.18 49.59 -22.64 60.06 -24.18 C 63.91 -24.79 63.06 -30.88 59.14 -30.34 C 49.13 -28.8 36.5 -28.34 20.94 -28.95 Z M 75 -49.2 C 73.69 -43.97 81.77 -41.66 83.16 -47.2 C 83.55 -48.59 83.93 -50.13 84.24 -51.51 C 85.62 -56.9 77.39 -58.83 76.08 -53.52 C 75.69 -52.13 75.31 -50.59 75 -49.2 Z M 80.54 -33.11 C 82.24 -38.73 73.53 -41.73 71.76 -35.88 C 69.99 -30.03 68.22 -24.18 66.45 -18.33 C 66.37 -18.17 66.37 -18.02 66.37 -17.94 C 63.91 -7.55 68.15 0.46 77.08 0.46 C 83.08 0.46 87.86 -5.62 91.01 -13.78 C 92.48 -17.48 86.78 -19.71 85.32 -15.94 C 82.01 -7.55 78.16 -7.24 77.08 -7.24 C 74.84 -7.24 73.53 -8.16 75.31 -15.94 C 75.31 -15.79 75.31 -15.86 75.31 -15.94 C 77 -21.41 78.77 -27.26 80.54 -33.11 Z M 85.55 -16.32 C 83.24 -13.17 88.09 -9.39 90.48 -12.63 C 94.48 -18.09 99.1 -27.95 101.02 -34.73 C 102.1 -38.42 96.25 -40.27 95.17 -36.42 C 93.48 -30.65 88.78 -20.71 85.55 -16.32 Z M 100.64 -42.2 C 99.64 -48.13 90.55 -46.59 91.55 -40.66 C 93.63 -28.18 104.26 -28.8 110.26 -28.8 C 115.19 -28.8 115.35 -36.5 110.26 -36.5 C 102.87 -36.5 101.49 -37.19 100.64 -42.2 Z M 113.88 -29.03 C 116.5 -34.34 108.26 -38.5 105.57 -33.03 C 96.25 -14.01 99.72 0 110.57 0 C 118.35 0 121.04 -7.62 123.35 -13.78 C 124.74 -17.4 119.04 -19.63 117.66 -15.94 C 114.88 -8.62 112.5 -7.7 110.57 -7.7 C 108.65 -7.7 104.57 -10.01 113.88 -29.03 Z M 154.54 -13.24 C 156.62 -16.55 151.38 -19.79 149.3 -16.48 C 146.3 -11.7 140.91 -8.78 134.98 -8.78 C 128.97 -8.78 126.05 -14.32 127.59 -19.63 C 129.82 -26.95 133.67 -32.03 138.14 -32.03 C 138.68 -32.03 143.22 -29.8 138.45 -24.02 C 134.83 -19.56 131.9 -19.33 125.36 -17.94 C 121.58 -17.17 122.58 -11.09 126.59 -11.94 C 132.44 -13.17 138.37 -14.17 143.22 -20.02 C 148.07 -25.95 150.07 -39.73 138.14 -39.73 C 127.97 -39.73 121.58 -31.65 118.66 -22.25 C 115.27 -10.39 122.66 0.46 134.98 0.46 C 146.92 0.46 151.23 -8.01 154.54 -13.24 Z M 185.88 -52.13 C 190.88 -52.44 190.34 -60.14 185.42 -59.83 C 167.17 -58.67 156.31 -46.35 151.92 -32.96 C 151.92 -32.96 151.84 -32.8 151.84 -32.8 C 147.61 -17.86 152.54 2.93 171.4 2.93 C 184.72 2.93 194.35 -10.55 198.97 -25.49 C 202.66 -39.04 199.43 -51.05 187.26 -51.05 C 167.78 -51.05 160.78 -5.16 189.57 -5.16 C 197.81 -5.16 203.05 -9.16 205.59 -13.24 C 207.75 -16.71 202.51 -19.94 200.35 -16.48 C 198.58 -13.63 195.96 -11.32 189.57 -11.32 C 169.71 -11.32 176.25 -44.89 187.26 -44.89 C 191.27 -44.89 194.89 -39.89 191.58 -27.8 C 187.57 -14.78 177.48 -6.31 171.4 -6.31 C 161.93 -6.31 159.47 -17.4 162.93 -29.57 C 162.93 -29.49 162.93 -29.57 162.93 -29.57 C 165.7 -37.96 172.33 -51.28 185.88 -52.13 Z M 241.86 -37.81 C 246.78 -38.42 245.86 -46.12 240.93 -45.51 C 228.84 -43.97 225.53 -31.95 223.84 -21.95 C 221.61 -9.93 220.68 -6.39 211.98 -9.24 C 205.05 -11.55 201.12 -0.69 208.44 1.69 C 228.92 8.47 232.69 -10.47 234.46 -20.1 C 236.31 -30.8 236.85 -37.19 241.86 -37.81 Z M 209.98 -32.19 C 208.05 -25.33 218.99 -21.48 221.07 -28.95 C 223.99 -39.35 230.23 -51.13 244.32 -51.13 C 252.48 -51.13 254.1 -45.2 253.79 -41.81 C 253.64 -39.58 250.87 -31.72 235.23 -30.72 C 231.38 -30.49 231.69 -24.33 235.7 -24.56 C 252.94 -24.56 256.72 -19.71 256.33 -15.4 C 255.87 -9.7 249.79 -6.39 242.7 -6.31 C 238.85 -6.31 235.31 -7.39 231.62 -10.7 C 227.3 -14.55 220.91 -7.85 225.46 -3.77 C 230.54 0.77 237.01 2.93 242.7 2.93 C 253.71 2.85 263.19 -4.7 264.03 -14.78 C 265.19 -28.18 250.1 -30.72 235.47 -30.72 C 231.38 -30.49 231.69 -24.33 235.7 -24.56 C 248.4 -25.41 262.11 -31.11 263.03 -41.04 C 263.96 -52.44 255.72 -58.83 244.32 -58.83 C 226.76 -58.83 213.98 -46.35 209.98 -32.19 Z" stroke-linecap="round" />
</g>
</g>
</g>
</svg>